<?xml version="1.0" standalone="no"?>
<!DOCTYPE svg PUBLIC "-//W3C//DTD SVG 20010904//EN"
 "http://www.w3.org/TR/2001/REC-SVG-20010904/DTD/svg10.dtd">
<svg version="1.0" xmlns="http://www.w3.org/2000/svg"
 width="265.000000pt" height="265.000000pt" viewBox="0 0 265.000000 265.000000"
 preserveAspectRatio="xMidYMid meet">
<metadata>
Created by potrace 1.14, written by Peter Selinger 2001-2017
</metadata>
<g transform="translate(0.000000,265.000000) scale(0.100000,-0.100000)"
fill="#000000" stroke="none">
<path d="M1018 2204 c-22 -12 -28 -12 -28 -2 0 8 -3 9 -8 3 -4 -5 -18 -11 -32
-12 -55 -4 -95 -14 -98 -23 -2 -6 -10 -10 -18 -10 -7 0 -28 -9 -46 -20 -18
-11 -29 -20 -24 -20 5 0 3 -6 -3 -14 -19 -23 -33 -103 -20 -112 5 -3 1 -17 -9
-32 -9 -14 -12 -23 -7 -20 7 4 11 -13 10 -48 0 -30 -3 -54 -6 -54 -4 0 -3 -16
1 -35 4 -19 6 -35 3 -35 -3 0 1 -8 8 -17 10 -12 11 -15 1 -9 -10 6 -12 -1 -10
-28 1 -20 6 -36 11 -36 5 0 4 -7 -3 -15 -9 -11 -9 -15 -1 -15 7 0 9 -5 4 -12
-12 -20 -12 -38 -1 -38 7 0 6 -5 -1 -14 -8 -10 -9 -16 -1 -21 5 -3 10 -11 10
-16 0 -6 -4 -8 -8 -5 -11 7 -8 -31 3 -41 4 -5 5 -2 0 6 -6 10 -4 12 4 7 9 -6
9 -11 1 -21 -7 -8 -8 -19 -4 -26 4 -6 7 -36 6 -65 0 -33 4 -54 11 -54 8 0 8
-3 0 -11 -8 -8 -7 -18 3 -37 7 -14 11 -29 8 -34 -3 -4 -1 -8 4 -8 6 0 13 -11
16 -25 4 -14 11 -23 16 -20 6 3 7 -1 4 -9 -4 -9 -1 -16 6 -16 7 0 10 -7 6 -15
-3 -9 0 -15 10 -15 8 0 12 -4 9 -10 -3 -5 1 -10 10 -10 9 0 13 -5 10 -10 -8
-12 4 -52 13 -47 4 2 15 -4 25 -15 9 -10 15 -18 12 -18 -3 0 11 -16 30 -37 19
-20 31 -41 28 -47 -3 -6 -3 -8 2 -4 9 8 35 -15 35 -32 0 -6 5 -8 10 -5 6 3 10
-1 10 -10 0 -9 5 -13 10 -10 6 3 10 -1 10 -9 0 -9 7 -16 16 -16 8 0 12 -4 9
-10 -3 -5 1 -10 9 -10 9 0 16 -3 16 -7 0 -5 16 -9 35 -9 19 -1 35 3 35 8 0 6
7 8 15 4 9 -3 15 0 15 9 0 8 4 15 9 15 5 0 11 6 13 14 2 10 9 11 26 5 20 -7
21 -12 12 -30 -9 -16 -8 -24 4 -38 9 -10 14 -20 12 -22 -2 -2 5 -13 15 -23 11
-11 19 -14 19 -8 0 6 9 9 20 7 11 -2 20 0 20 6 0 5 7 9 15 9 8 0 15 5 15 10 0
7 6 7 20 0 16 -9 18 -8 14 5 -4 9 -3 15 2 14 5 -1 20 3 34 9 14 6 21 11 17 11
-4 1 6 16 23 34 58 60 66 71 50 63 -10 -5 -9 -3 2 7 10 7 22 26 27 40 6 15 18
27 26 27 9 0 14 4 11 9 -3 5 1 14 10 21 8 7 13 19 10 27 -3 8 -1 11 4 8 6 -3
10 1 10 10 0 9 4 13 10 10 8 -5 23 30 25 57 0 3 4 10 9 15 5 5 6 2 1 -7 -6
-11 -5 -12 4 -4 7 6 14 20 16 30 1 11 8 18 14 17 6 -2 10 0 10 5 -4 24 2 52
11 47 6 -3 10 3 10 15 0 11 7 23 15 26 8 4 12 10 9 15 -3 5 0 9 6 9 6 0 8 5 5
10 -3 6 2 10 12 10 14 0 15 2 5 9 -11 7 -11 9 1 14 14 5 16 34 3 55 -4 6 -3
12 3 12 7 0 7 8 2 23 -4 12 -6 34 -4 50 2 17 -1 27 -9 27 -10 0 -10 2 0 8 7 5
12 31 12 68 0 32 0 74 0 92 1 19 -4 32 -12 32 -8 0 -9 3 -3 8 15 11 17 32 2
32 -8 0 -7 4 3 10 11 7 11 10 2 10 -10 0 -10 5 -1 23 6 12 8 19 4 15 -16 -15
-35 13 -24 33 6 13 6 19 -1 19 -5 0 -10 9 -10 20 0 11 -5 20 -11 20 -5 0 -8 4
-5 9 7 10 -18 33 -27 25 -3 -3 -3 4 0 17 4 15 3 20 -5 15 -7 -4 -12 -1 -12 8
0 9 -3 15 -7 15 -21 -3 -44 2 -39 9 6 10 5 10 -81 14 -35 2 -63 0 -63 -4 0 -3
-9 -4 -20 -1 -13 3 -20 0 -20 -8 0 -11 -2 -11 -10 1 -5 8 -10 10 -10 5 0 -6
-10 -12 -22 -12 -13 -1 -24 -7 -26 -13 -2 -5 -12 -10 -22 -10 -11 0 -30 -11
-44 -25 -14 -14 -30 -25 -36 -25 -6 0 -8 -4 -5 -10 3 -5 -1 -10 -9 -10 -8 0
-19 -7 -24 -16 -8 -14 -12 -13 -29 10 -11 14 -23 22 -27 19 -5 -6 -10 12 -7
30 0 4 -4 7 -9 7 -5 0 -10 14 -10 30 0 17 -5 30 -10 30 -7 0 -7 6 0 19 14 27
13 74 -2 90 -10 11 -10 12 -1 7 9 -5 11 -2 7 8 -3 9 -10 16 -16 16 -5 0 -6 6
-2 13 4 6 4 9 -1 5 -4 -4 -19 -1 -34 6 -15 8 -34 10 -46 6 -11 -4 -24 -4 -30
0 -5 5 -22 2 -37 -6z"/>
</g>
</svg>
